<mxfile host="app.diagrams.net" agent="Mozilla/5.0 (Windows NT 10.0; Win64; x64) AppleWebKit/537.36 (KHTML, like Gecko) Chrome/136.0.0.0 Safari/537.36" version="27.0.6">
  <diagram name="第 1 页" id="iY-jqibC6fYf6zZKVxR_">
    <mxGraphModel dx="1056" dy="535" grid="1" gridSize="10" guides="1" tooltips="1" connect="1" arrows="1" fold="1" page="1" pageScale="1" pageWidth="1169" pageHeight="1654" math="0" shadow="0">
      <root>
        <mxCell id="0" />
        <mxCell id="1" parent="0" />
        <mxCell id="HIJITU4ncIip7CPGMSHQ-3" value="管理" style="rhombus;whiteSpace=wrap;html=1;" vertex="1" parent="1">
          <mxGeometry x="440" y="390" width="90" height="60" as="geometry" />
        </mxCell>
        <mxCell id="HIJITU4ncIip7CPGMSHQ-5" value="user" style="rounded=0;whiteSpace=wrap;html=1;" vertex="1" parent="1">
          <mxGeometry x="440" y="260" width="90" height="60" as="geometry" />
        </mxCell>
        <mxCell id="HIJITU4ncIip7CPGMSHQ-7" value="生成" style="rhombus;whiteSpace=wrap;html=1;" vertex="1" parent="1">
          <mxGeometry x="580" y="500" width="100" height="60" as="geometry" />
        </mxCell>
        <mxCell id="HIJITU4ncIip7CPGMSHQ-8" value="音频" style="rounded=0;whiteSpace=wrap;html=1;" vertex="1" parent="1">
          <mxGeometry x="440" y="500" width="90" height="60" as="geometry" />
        </mxCell>
        <mxCell id="HIJITU4ncIip7CPGMSHQ-9" value="模型" style="rounded=0;whiteSpace=wrap;html=1;" vertex="1" parent="1">
          <mxGeometry x="740" y="500" width="90" height="60" as="geometry" />
        </mxCell>
        <mxCell id="HIJITU4ncIip7CPGMSHQ-10" value="管理" style="rhombus;whiteSpace=wrap;html=1;" vertex="1" parent="1">
          <mxGeometry x="620" y="340" width="90" height="60" as="geometry" />
        </mxCell>
      </root>
    </mxGraphModel>
  </diagram>
</mxfile>
